<?xml version="1.0" encoding="UTF-8"?>
<svg width="44px" height="44px" viewBox="0 0 44 44" version="1.1" xmlns="http://www.w3.org/2000/svg" xmlns:xlink="http://www.w3.org/1999/xlink">
    <!-- Generator: Sketch 41 (35326) - http://www.bohemiancoding.com/sketch -->
    <title>facebook</title>
    <desc>Created with Sketch.</desc>
    <defs></defs>
    <g id="Symbols" stroke="none" stroke-width="1" fill="none" fill-rule="evenodd">
        <g id="footer" transform="translate(-21.000000, -59.000000)">
            <g id="Group-5">
                <g transform="translate(21.000000, 59.000000)">
                    <g id="facebook">
                        <circle id="Oval-1"  cx="22" cy="22" r="22"></circle>
                        <path d="M32.0540678,10.5714042 L12.2348477,10.5714042 C11.5529273,10.5714042 11.0015873,11.1227442 11.0015873,11.8046646 L11.0015873,31.6238847 C11.0015873,32.3058051 11.5529273,32.8571451 12.2348477,32.8571451 L22.8989229,32.8571451 L22.8989229,24.2243223 L19.9971337,24.2243223 L19.9971337,20.8582468 L22.8989229,20.8582468 L22.8989229,18.3772171 C22.8989229,15.5044458 24.6690143,13.9374797 27.2370977,13.9374797 C28.4558492,13.9374797 29.5150022,14.0245333 29.8196901,14.0680602 L29.8196901,17.071412 L28.0495987,17.0859209 C26.642231,17.0859209 26.3810699,17.7388235 26.3810699,18.7109229 L26.3810699,20.8582468 L29.7036185,20.8582468 L29.2683502,24.2243223 L26.3810699,24.2243223 L26.3810699,32.8571451 L32.0540678,32.8571451 C32.7359882,32.8571451 33.2873282,32.3058051 33.2873282,31.6238847 L33.2873282,11.8046646 C33.2873282,11.1227442 32.7359882,10.5714042 32.0540678,10.5714042 L32.0540678,10.5714042 Z" id="" fill="#ffffff"></path>
                    </g>
                </g>
            </g>
        </g>
    </g>
</svg>