<?xml version="1.0" encoding="UTF-8"?>
<svg width="44px" height="44px" viewBox="0 0 44 44" version="1.1" xmlns="http://www.w3.org/2000/svg" xmlns:xlink="http://www.w3.org/1999/xlink">
    <!-- Generator: Sketch 41 (35326) - http://www.bohemiancoding.com/sketch -->
    <title>twitter</title>
    <desc>Created with Sketch.</desc>
    <defs></defs>
    <g id="Symbols" stroke="none" stroke-width="1" fill="none" fill-rule="evenodd">
        <g id="footer" transform="translate(-72.000000, -59.000000)">
            <g id="Group-5">
                <g transform="translate(21.000000, 59.000000)">
                    <g id="twitter" transform="translate(51.000000, 0.000000)">
                        <circle id="Oval-1" fill="#D8D8D8" cx="22" cy="22" r="22"></circle>
                        <path d="M34.5775082,15.6339091 C33.7359893,15.9966327 32.8219257,16.2577937 31.8788443,16.3593564 C32.8509436,15.7789985 33.5908999,14.8649349 33.9391146,13.776764 C33.0395599,14.313595 32.0239337,14.7053365 30.9647807,14.9084618 C30.1087529,13.9943982 28.8900014,13.4285493 27.5406694,13.4285493 C24.9435681,13.4285493 22.8542799,15.5323464 22.8542799,18.1149388 C22.8542799,18.4776625 22.8978068,18.8403861 22.9703515,19.1886008 C19.081954,18.9854756 15.6143159,17.1283305 13.3073935,14.2845771 C12.9011431,14.9810065 12.6689999,15.7789985 12.6689999,16.6495353 C12.6689999,18.2745372 13.4960098,19.7109229 14.7582881,20.5524417 C13.989314,20.5234238 13.2638667,20.3057896 12.639982,19.9575749 L12.639982,20.0156107 C12.639982,22.2935152 14.250475,24.1796782 16.397799,24.6149466 C16.0060575,24.7165092 15.585298,24.774545 15.1645386,24.774545 C14.8598508,24.774545 14.5696718,24.7455271 14.2794929,24.7020002 C14.8743597,26.5591453 16.6009243,27.9084773 18.6611946,27.9520041 C17.0507016,29.2142824 15.0339581,29.9542386 12.8431073,29.9542386 C12.4513657,29.9542386 12.0886421,29.9397297 11.7114095,29.8962028 C13.7861888,31.2310259 16.2527096,32 18.9078466,32 C27.5261605,32 32.2415679,24.8615986 32.2415679,18.6662787 C32.2415679,18.4631535 32.2415679,18.2600283 32.227059,18.056903 C33.1411225,17.3894915 33.9391146,16.5624816 34.5775082,15.6339091 L34.5775082,15.6339091 Z" id="" fill="#838383"></path>
                    </g>
                </g>
            </g>
        </g>
    </g>
</svg>